<svg width="260" height="260" viewBox="0 0 260 260" fill="none" xmlns="http://www.w3.org/2000/svg">
<path d="M0 45C0 20.1472 20.1472 0 45 0H215C239.853 0 260 20.1472 260 45V215C260 239.853 239.853 260 215 260H45C20.1472 260 0 239.853 0 215V45Z" fill="url(#paint0_linear)"/>
<path d="M121.725 159.225C122.325 159.225 122.925 159.35 123.525 159.6C124.125 159.8 124.7 160.175 125.25 160.725L135.3 171.3C130.9 177.05 125.375 181.4 118.725 184.35C112.125 187.25 104.3 188.7 95.25 188.7C86.95 188.7 79.5 187.3 72.9 184.5C66.35 181.65 60.775 177.75 56.175 172.8C51.625 167.8 48.125 161.9 45.675 155.1C43.225 148.25 42 140.825 42 132.825C42 124.675 43.325 117.2 45.975 110.4C48.625 103.55 52.35 97.65 57.15 92.7C61.95 87.75 67.7 83.9 74.4 81.15C81.1 78.4 88.475 77.025 96.525 77.025C100.625 77.025 104.475 77.4 108.075 78.15C111.725 78.85 115.125 79.85 118.275 81.15C121.425 82.4 124.325 83.925 126.975 85.725C129.625 87.525 131.975 89.475 134.025 91.575L125.475 103.05C124.925 103.75 124.275 104.4 123.525 105C122.775 105.55 121.725 105.825 120.375 105.825C119.475 105.825 118.625 105.625 117.825 105.225C117.025 104.825 116.175 104.35 115.275 103.8C114.375 103.2 113.375 102.575 112.275 101.925C111.225 101.225 109.95 100.6 108.45 100.05C107 99.45 105.275 98.95 103.275 98.55C101.325 98.15 99.025 97.95 96.375 97.95C92.175 97.95 88.325 98.725 84.825 100.275C81.375 101.825 78.375 104.1 75.825 107.1C73.325 110.05 71.375 113.7 69.975 118.05C68.625 122.35 67.95 127.275 67.95 132.825C67.95 138.425 68.7 143.4 70.2 147.75C71.75 152.1 73.825 155.775 76.425 158.775C79.075 161.725 82.15 163.975 85.65 165.525C89.15 167.075 92.9 167.85 96.9 167.85C99.2 167.85 101.3 167.75 103.2 167.55C105.1 167.3 106.875 166.925 108.525 166.425C110.175 165.875 111.725 165.175 113.175 164.325C114.625 163.425 116.1 162.3 117.6 160.95C118.2 160.45 118.85 160.05 119.55 159.75C120.25 159.4 120.975 159.225 121.725 159.225ZM179.141 170.325C181.541 170.325 183.766 169.875 185.816 168.975C187.916 168.075 189.716 166.85 191.216 165.3C192.716 163.7 193.891 161.85 194.741 159.75C195.641 157.6 196.091 155.275 196.091 152.775C196.091 149.975 195.666 147.475 194.816 145.275C194.016 143.075 192.866 141.225 191.366 139.725C189.866 138.225 188.041 137.075 185.891 136.275C183.791 135.475 181.441 135.075 178.841 135.075C176.491 135.075 174.341 135.5 172.391 136.35C170.441 137.15 168.741 138.325 167.291 139.875C165.891 141.425 164.791 143.275 163.991 145.425C163.191 147.575 162.791 150 162.791 152.7C162.791 155.4 163.116 157.825 163.766 159.975C164.416 162.125 165.416 163.975 166.766 165.525C168.116 167.075 169.816 168.275 171.866 169.125C173.916 169.925 176.341 170.325 179.141 170.325ZM175.391 120.225C178.891 118.925 182.791 118.275 187.091 118.275C191.041 118.275 194.941 118.925 198.791 120.225C202.641 121.525 206.091 123.525 209.141 126.225C212.191 128.925 214.641 132.35 216.491 136.5C218.391 140.6 219.341 145.45 219.341 151.05C219.341 156.15 218.391 161 216.491 165.6C214.591 170.15 211.891 174.15 208.391 177.6C204.941 181 200.766 183.7 195.866 185.7C190.966 187.7 185.541 188.7 179.591 188.7C173.491 188.7 168.016 187.75 163.166 185.85C158.316 183.9 154.191 181.2 150.791 177.75C147.441 174.3 144.866 170.175 143.066 165.375C141.316 160.575 140.441 155.3 140.441 149.55C140.441 138.8 144.591 127.875 152.891 116.775L177.491 83.55C178.641 82.1 180.291 80.85 182.441 79.8C184.641 78.75 187.141 78.225 189.941 78.225H210.641L178.241 116.925L175.391 120.225Z" fill="#FFFEFE"/>
<defs>
<linearGradient id="paint0_linear" x1="0" y1="130" x2="260" y2="130" gradientUnits="userSpaceOnUse">
<stop stop-color="#312923" stop-opacity="0.8"/>
<stop offset="0.505208" stop-color="#312923" stop-opacity="0.78"/>
<stop offset="1" stop-color="#3B2C27" stop-opacity="0.67"/>
</linearGradient>
</defs>
</svg>
